<svg width="113" height="113" viewBox="0 0 113 113" fill="none" xmlns="http://www.w3.org/2000/svg">
<circle cx="56.5" cy="56.5" r="56.5" fill="#F38D15"/>
<path d="M56.5 -2.46969e-06C68.1426 -2.97861e-06 79.5009 3.59669 89.0214 10.2981C98.5419 16.9996 105.76 26.4786 109.688 37.4386C113.615 48.3985 114.061 60.3043 110.965 71.5275C107.868 82.7508 101.38 92.7433 92.3878 100.138L71.2565 74.4434C74.954 71.4027 77.6218 67.2939 78.8951 62.6791C80.1684 58.0643 79.9849 53.1688 78.3698 48.6622C76.7548 44.1557 73.7869 40.2581 69.8723 37.5025C65.9576 34.747 61.2872 33.2681 56.5 33.2681L56.5 -2.46969e-06Z" fill="#7047EE"/>
<circle cx="56.5" cy="56.5" r="24.5" fill="#F5F5F5"/>
</svg>
