<svg width="27" height="24" viewBox="0 0 27 24" fill="none" xmlns="http://www.w3.org/2000/svg">
<g filter="url(#filter0_d_2_20986)">
<path d="M19.8153 1H7.18471C6.34007 1 5.53003 1.33553 4.93278 1.93278C4.33553 2.53003 4 3.34007 4 4.18471V13.1019C4 13.9465 4.33553 14.7566 4.93278 15.3538C5.53003 15.9511 6.34007 16.2866 7.18471 16.2866H19.8153C20.6599 16.2866 21.47 15.9511 22.0672 15.3538C22.6645 14.7566 23 13.9465 23 13.1019V4.18471C23 3.34007 22.6645 2.53003 22.0672 1.93278C21.47 1.33553 20.6599 1 19.8153 1ZM16.9108 9.48407L11.6847 12.2866C11.5458 12.3616 11.3904 12.401 11.2325 12.4013C10.9791 12.4013 10.7361 12.3006 10.5569 12.1214C10.3777 11.9423 10.2771 11.6992 10.2771 11.4459V5.84076C10.2772 5.6756 10.3202 5.51329 10.4018 5.36968C10.4833 5.22607 10.6008 5.10606 10.7426 5.02137C10.8844 4.93667 11.0457 4.89018 11.2108 4.88644C11.3759 4.88269 11.5392 4.92182 11.6847 5L16.9108 7.80255C17.0625 7.88441 17.1892 8.00578 17.2775 8.15379C17.3658 8.30181 17.4124 8.47095 17.4124 8.64331C17.4124 8.81567 17.3658 8.98481 17.2775 9.13283C17.1892 9.28084 17.0625 9.40221 16.9108 9.48407ZM11.551 6.37261L15.7834 8.64331L11.551 10.914V6.37261Z" fill="white"/>
</g>
<defs>
<filter id="filter0_d_2_20986" x="0" y="0" width="27" height="23.2866" filterUnits="userSpaceOnUse" color-interpolation-filters="sRGB">
<feFlood flood-opacity="0" result="BackgroundImageFix"/>
<feColorMatrix in="SourceAlpha" type="matrix" values="0 0 0 0 0 0 0 0 0 0 0 0 0 0 0 0 0 0 127 0" result="hardAlpha"/>
<feOffset dy="3"/>
<feGaussianBlur stdDeviation="2"/>
<feColorMatrix type="matrix" values="0 0 0 0 0.458824 0 0 0 0 0.0745098 0 0 0 0 0.94902 0 0 0 0.25 0"/>
<feBlend mode="normal" in2="BackgroundImageFix" result="effect1_dropShadow_2_20986"/>
<feBlend mode="normal" in="SourceGraphic" in2="effect1_dropShadow_2_20986" result="shape"/>
</filter>
</defs>
</svg>
